<svg xmlns="http://www.w3.org/2000/svg" viewBox="0 0 6120.45 1357.08"><defs><style>.a{font-size:783px;font-family:Knockout-HTF28-JuniorFeatherwt, Knockout HTF28-JuniorFeatherwt;letter-spacing:-0.03em;}.b{letter-spacing:0.01em;}.c{letter-spacing:0.01em;}.d{letter-spacing:0.01em;}.e{stroke:#000;stroke-linecap:round;stroke-linejoin:round;stroke-width:2px;}</style></defs><text class="a" transform="translate(2287.75 1228.95) scale(1.12 0.89)">T<tspan class="b" x="231.77" y="0">r</tspan><tspan class="c" x="416.56" y="0">adeE</tspan><tspan class="d" x="1457.93" y="0">x</tspan><tspan class="c" x="1686.56" y="0">change</tspan></text><path d="M2047.65,568v6a8.66,8.66,0,0,0-2.31.55c-21.74,12.61-43.5,25.2-65.14,38a9.39,9.39,0,0,0-3.52,5c-6.92,21.71-13.78,43.44-20.39,65.25-1.4,4.64-3.4,6.4-8.57,6.37-35.83-.22-71.66,0-107.48,0h-10.7v-59h-6.29q-87,0-174,.11c-4.42,0-6.72-1.3-8.87-5.17q-45.66-82-91.63-163.86l-12.38-22a15,15,0,0,0,.89,7q27.72,90.17,55.57,180.29c1.14,3.67.53,5.13-3,6.7q-32.85,14.59-65.41,29.75a12.24,12.24,0,0,0-5.77,6c-17.8,45.55-35.33,91.2-53.1,136.76a12.58,12.58,0,0,1-5.23,6q-177.49,95.77-355.13,191.3c-1.36.73-2.77,1.34-5,2.42,6.9-35.58,13.62-70.16,20.33-104.74a13,13,0,0,0-3.41,4.28q-33,58.53-65.88,117-63.69,113.13-127.46,226.2a9.3,9.3,0,0,0-.54,9.25c3.18,7.5,5.9,15.19,8.79,22.81q13.86,36.32,27.63,72.73h-183c1.18-10.92,1.77-21.94,3.64-32.74,5.77-33.33,17.36-64.88,30.76-95.78,27.16-62.65,61.06-121.61,98.45-178.63a8.63,8.63,0,0,0,1.23-8.27q-11.07-33.91-21.65-68a16.09,16.09,0,0,1,0-9.07c17.24-54.2,34.71-108.33,52-162.54a17.5,17.5,0,0,0,.12-9.52q-21.42-74.07-43.28-148a10.48,10.48,0,0,1,1.3-9.25Q945.3,554,991.15,476.63c3.2-5.39,6.48-10.72,9.87-16.33l176,134.89c.26-.31.52-.63.77-1L995.92,404.53a36.26,36.26,0,0,0-2,3.15Q930,517,866.32,626.39a10.25,10.25,0,0,0-.68,7.34q19,63.06,38.43,126,4.59,15,9.14,29.92c-1,.63-1.54,1-2.12,1.32q-145.2,75.69-290.44,151.26a16.9,16.9,0,0,1-7.59,1.65c-47-.18-94-.53-141-.63a12.35,12.35,0,0,0-7.86,3c-25.55,24.28-51,48.76-76.55,73.12-2.21,2.1-2.84,4-2.08,6.93,6,23.36,11.46,46.87,17.78,70.14,11.73,43.19,25.1,86,29.87,130.75,3,27.74,2.31,55.27-6.51,82-3.08,9.34-7.39,18.28-11.3,27.79l-112.82-66c18.85-24.83,26-52.69,25.89-82.55-.17-33.08-7.92-64.64-21.29-94.81q-39.93-90.09-80.07-180.06c-1.54-3.45-1.33-5.33,1.8-7.82q63.24-50.55,126.28-101.38c1.11-.9,2.14-1.91,3.15-2.83-.7-1.45-1.18-2.51-1.72-3.54-17.58-34.21-27.41-70.63-30.77-108.83a344.54,344.54,0,0,1,9-114C356.48,488,401,415,472.08,359.35c67.77-53,145.18-75.36,230.9-68.16,45.55,3.83,88.86,16.5,130.49,35.1a11.19,11.19,0,0,0,9,.35q245.34-85.17,490.73-170.23c6.85-2.38,13.72-4.68,21.12-7.21-.13,1.93-.2,3.06-.28,4.18-2,27.24,2.86,53.1,16,77.16,19.23,35.27,48.51,59.67,84.46,76.38,11,5.11,22.7,8.65,34.07,12.91l.67-1.6-4.81-3.44c-30.62-21.63-57.88-46.57-77.11-79.26-12.21-20.75-19.38-42.93-18.84-67.35.59-27.06,10.72-50.54,26.46-71.92,20.46-27.79,47.08-48.75,75.69-67.44,3-1.94,6-3.75,9.42-5.84-6.08,7.18-12.15,13.61-17.39,20.67-11.34,15.28-17.94,32.22-16,51.69,1.71,17.57,9.75,32.35,20.68,45.72,16.13,19.74,36.24,34.82,57.92,47.79,29.41,17.61,59.09,34.77,88.63,52.17,2.7,1.59,4.81,1.62,7.63-.27,21.61-14.41,43.44-28.5,65-42.95,3.35-2.24,5.59-2.06,8.83,0,10.27,6.5,20.76,12.64,31.17,18.91Q1819,260.39,1891.62,304c3.4,2,4.39,3.82,3.4,7.86-3,12.12-5.25,24.4-8,36.58a9.7,9.7,0,0,0,1.82,8.74c24.45,33.09,48.72,66.32,73.2,99.38a13.48,13.48,0,0,0,6.69,4.46q20.58,6.08,41.36,11.5c3.1.81,4.67,2.19,5.71,5.25,5.82,17.18,11.83,34.28,17.88,51.38C2038.25,542.08,2043,555,2047.65,568Z"/><path d="M1486.65,105.11c23.53-11.59,44.9-26.53,70.42-32.61,13.72-3.26,27.57-4.34,40.53,2.26,9.15,4.67,17.67,10.62,26.35,16.18L1800.63,204c1.71,1.1,4.52,2,6.2,1.39,35.65-13.32,70.26-28.76,100.72-52.09,18.21-13.94,33.83-30.18,42.86-51.72,10-23.8,8-47.54-1.33-71-3.45-8.63-7.72-16.93-12.11-26.46,4.19,3.92,7.77,7.15,11.22,10.5,29.56,28.7,56.31,59.55,73.81,97.38,9.5,20.53,15.1,41.94,13.86,64.77-1.6,29.51-14.92,53.13-37,72-23.87,20.39-52.35,31.11-82.23,39.12-9.06,2.43-16.1,1.15-24.13-3.81-59.35-36.63-119-72.72-178.55-109.1-3-1.86-5-1.67-7.82.32-22.12,15.44-44.44,30.6-66.54,46.06-3.46,2.42-6.29,2.51-10.06,1-25.17-9.94-47.68-24.38-69-40.76-24.24-18.61-47-38.81-65.72-63.21-2-2.63-3.8-5.47-5.57-8.29A28.82,28.82,0,0,1,1486.65,105.11Z"/><path d="M386.18,57.12,339.65,88.67C321.46,101,303.35,113.47,285,125.6a14,14,0,0,1-8.73,2q-42.87-5.44-85.62-11.57c-3.8-.56-5.79,1.57-8.26,3-15.28,9.13-30.9,17.79-45.57,27.81-29.22,20-55.31,43.45-74.81,73.38-14.31,21.93-23.37,45.64-22.32,72.31,1.1,28.51,10.61,53.4,32,73,14.84,13.59,32.64,18,52.3,16,25.06-2.51,48.17-11.55,70.7-22,31.54-14.63,62.66-30.16,94.16-44.87,27.35-12.78,55.58-23.12,85.42-28.58A166.39,166.39,0,0,1,477,299.34c6.9,3.23,13.85,6.36,21.35,9.8-10.07,6.48-19.62,12.22-28.74,18.57C459.79,334.55,450.39,342,440.7,349c-1.12.81-2.85.84-4.32,1.06a3.89,3.89,0,0,1-1.92-.49c-21.94-9.43-44.18-7.45-66.64-2.12-32.59,7.73-62.93,21.36-93.34,34.88-33.24,14.76-66.24,30.28-101.5,40-24,6.63-48.29,10.18-73.1,6.1-33.45-5.5-58.7-23.78-76.4-52.07-28.27-45.21-30.61-92.7-9.17-141.14,14.71-33.24,39.08-59,67.25-81.16,27.48-21.67,57.77-38.63,90-52.13,2.72-1.13,5-3.48,7.32-5.4,21.91-18,43.75-36,65.77-53.79a10.14,10.14,0,0,1,6.79-1.72c23.67,2.63,47.3,5.5,70.95,8.29L378,56C380.29,56.24,382.58,56.61,386.18,57.12Z"/><path d="M279.41,1266.75l35.9,43.68H193a95.51,95.51,0,0,1,2.73-35.1c11.92-45.5,35.16-84.15,70.92-114.9,5.89-5,13-8.66,19.31-13.23,3.81-2.75,6.36-1.23,9,1.59,8.53,9.29,11.86,20.66,12.74,32.84,2.21,30.37-8.53,56.74-25.46,81.13C281.36,1264,280.5,1265.2,279.41,1266.75Z"/><path d="M437.44,1095.62c-2.67-14-5.18-27-7.63-40-1.85-9.82-3.44-19.69-5.56-29.44-.68-3.18.21-4.86,2.5-6.74,18.14-14.93,36.17-30,54.33-44.88a10,10,0,0,1,5.74-2.29q57.49-.19,115-.08a22.42,22.42,0,0,1,2.56.43Z"/><path d="M1325.65,903.34l48.43-25.44q49.71-26.1,99.45-52.16a13.61,13.61,0,0,0,6.71-7.44q29.13-71.09,58.52-142.08c.67-1.64,1.43-3.24,2.43-5.49,8.84,20,17.43,39.27,25.81,58.65.66,1.54.15,3.89-.48,5.62-5.92,16.43-11.86,32.85-18.1,49.16a17,17,0,0,0-.36,11.52c15.72,54.15,31.26,108.35,47,162.47,1.1,3.77.2,5.53-2.66,7.81-19.87,15.81-34.43,36.07-47.1,57.73-23.16,39.56-41.66,81.21-51.53,126.07-2.91,13.21-10.51,22-19.07,30.55-29.06,29.18-63.06,51.61-99.52,70.35-11.19,5.75-23.2,9.9-34.85,14.77-4.1,1.71-6.56,1-8.79-3.59-12.78-26.31-16.76-54.18-15.39-83a278.89,278.89,0,0,1,22.17-96.79c2.74-6.43,6.44-8.86,13.33-9,16.64-.42,33.25-1.73,49.88-2.4,3.49-.14,4.5-1.5,4.87-4.64,4.21-35.71,8.57-71.41,12.62-107.14.17-1.5-1.85-3.94-3.47-4.86q-42.36-24-84.88-47.67C1329.29,905.47,1327.87,904.62,1325.65,903.34Z"/><path class="e" d="M1500.19,23.45l-15,12.5"/><path class="e" d="M1937.19,4.45l9,12.5"/><path class="e" d="M604.19,972.45l-8,2.5"/><path class="e" d="M385.19,57.45l-7,1.5"/><path class="e" d="M1541.19,671.45V678"/><path class="e" d="M1330.19,903.45h-4"/><path class="e" d="M1904.65,284.45q-.5,3-1,6"/><path class="e" d="M437.65,344.45q.51,3,1,6"/></svg>